<svg xmlns="http://www.w3.org/2000/svg" viewBox="0 0 32 32" fill="none">
  <defs>
    <linearGradient id="g" x1="6" y1="6" x2="26" y2="26" gradientUnits="userSpaceOnUse">
      <stop stop-color="#0284c7"/>
      <stop offset="1" stop-color="#4f46e5"/>
    </linearGradient>
  </defs>
  <rect width="32" height="32" rx="7" fill="#f1f5f9"/>
  <path d="M4 10h3M4 16h3M4 22h3M25 10h3M25 16h3M25 22h3M10 4v3M16 4v3M22 4v3M10 25v3M16 25v3M22 25v3" stroke="#94a3b8" stroke-width="1.2" stroke-linecap="round"/>
  <rect x="11" y="11" width="10" height="10" rx="2" fill="url(#g)"/>
  <path d="M13.5 14h5M13.5 16.5h5M13.5 19h3.5" stroke="#e0f2fe" stroke-width="0.9" stroke-linecap="round" opacity="0.9"/>
  <circle cx="16" cy="16" r="1.1" fill="#e0f2fe"/>
</svg>
